<?xml version="1.0" encoding="UTF-8" standalone="no"?>
<!DOCTYPE svg PUBLIC "-//W3C//DTD SVG 20010904//EN"
"http://www.w3.org/TR/2001/REC-SVG-20010904/DTD/svg10.dtd">
<!-- Created with Sodipodi ("http://www.sodipodi.com/") -->
<svg
   width="48pt"
   height="48pt"
   viewBox="0 0 50.873 37.208"
   overflow="visible"
   enable-background="new 0 0 50.873 37.208"
   xml:space="preserve"
   id="svg153"
   sodipodi:version="0.32"
   sodipodi:docname="/home/alp/mbuild/migcvs/monodoc/monodoc.svg"
   xmlns="http://www.w3.org/2000/svg"
   xmlns:sodipodi="http://sodipodi.sourceforge.net/DTD/sodipodi-0.dtd"
   xmlns:xml="http://www.w3.org/XML/1998/namespace"
   xmlns:xlink="http://www.w3.org/1999/xlink"
   sodipodi:docbase="/home/alp/mbuild/migcvs/monodoc">
  <defs
     id="defs219">
    <linearGradient
       id="linearGradient575">
      <stop
         offset="0.000000"
         style="stop-color:#fdfeed;stop-opacity:1;"
         id="stop577" />
      <stop
         offset="1.000000"
         style="stop-color:#e5e7ff;stop-opacity:0.937255;"
         id="stop576" />
    </linearGradient>
    <linearGradient
       id="linearGradient572">
      <stop
         offset="0.000000"
         style="stop-color:#a37aff;stop-opacity:1;"
         id="stop574" />
      <stop
         offset="1.000000"
         style="stop-color:#d2cfff;stop-opacity:1;"
         id="stop573" />
    </linearGradient>
    <linearGradient
       xlink:href="#linearGradient575"
       id="linearGradient578"
       x1="23.6175060"
       y1="11.4829264"
       x2="37.9331245"
       y2="-12.0003729"
       gradientUnits="userSpaceOnUse"
       gradientTransform="matrix(0.784039,0.569601,0.606458,-0.834857,0.000000,0.000000)"
       spreadMethod="pad" />
    <linearGradient
       xlink:href="#linearGradient575"
       id="linearGradient580" />
    <radialGradient
       xlink:href="#linearGradient575"
       id="radialGradient582"
       cx="0.50000030"
       cy="0.49999881"
       fx="0.50000030"
       fy="0.49999881"
       r="0.50000000"
       gradientUnits="objectBoundingBox"
       spreadMethod="pad" />
  </defs>
  <sodipodi:namedview
     id="base" />
  <metadata
     id="metadata154">
    <sfw>
      <slices />
      <sliceSourceBounds
         y="400.896"
         x="271.064"
         width="50.873"
         height="37.208"
         bottomLeftOrigin="true" />
    </sfw>
  </metadata>
  <g
     id="g157"
     style="font-size:12;stroke:#000000;">
    <linearGradient
       id="XMLID_1_"
       gradientUnits="userSpaceOnUse"
       x1="-381.454102"
       y1="96.275902"
       x2="-366.741913"
       y2="72.141899"
       gradientTransform="matrix(0.4828 0.721 0.7677 -0.514 140.2953 336.1201)"
       xlink:href="#linearGradient575" />
    <path
       fill="url(#XMLID_1_)"
       stroke="none"
       d="M17.234,34.423L3.903,18.52L26.402,8.491l19.771,16.356L17.234,34.423z"
       id="path164" />
  </g>
  <path
     stroke="none"
     d="M1.3,17.922l15.563,18.44l31.913-10.918L26.773,6.551L1.3,17.922z"
     id="path165"
     style="font-size:12;" />
  <path
     fill="url(#XMLID_1_)"
     stroke="none"
     d="M17.234,34.423L3.903,18.52L26.402,8.491l19.771,16.356L17.234,34.423z"
     id="path167"
     style="font-size:12;fill:url(#XMLID_1_);" />
  <g
     id="g168"
     style="font-size:12;stroke:#000000;">
    <linearGradient
       id="XMLID_3_"
       gradientUnits="userSpaceOnUse"
       x1="-317.468811"
       y1="216.162598"
       x2="-301.480194"
       y2="189.934906"
       gradientTransform="matrix(0.702 0.51 0.543 -0.7475 130.9678 327.3566)"
       xlink:href="#linearGradient572" />
    <path
       fill="url(#XMLID_3_)"
       stroke="none"
       d="M29.242,32.379L2.632,18.253L18.827,1.96l26.609,14.127L29.242,32.379z"
       id="path175" />
  </g>
  <path
     stroke="none"
     d="M0,18.676L29.505,34.34l18.563-18.676L18.565,0L0,18.676z"
     id="path176"
     style="font-size:12;" />
  <path
     fill="url(#XMLID_3_)"
     stroke="none"
     d="M29.242,32.379L2.632,18.253L18.827,1.96l26.609,14.127L29.242,32.379z"
     id="path178"
     style="font-size:12;fill:url(#linearGradient578);" />
  <path
     adobe-blending-mode="multiply"
     opacity="0.2"
     stroke="none"
     d="M1.503,19.184l21.319,13.927l-5.958,3.251l8.951-0.793     l4.862,1.64l5.236-6.145l14.96-4.916l-4.861-5.325l4.113-2.867l-5.236-0.409l-2.618,3.277l4.114,2.867l-13.09,5.324l-4.053,3.364     L1.503,19.184z"
     id="path216"
     style="font-size:12;opacity:0.2;" />
  <path
     style="fill:#000000;fill-opacity:0.295652;stroke:#000000;stroke-opacity:1;stroke-width:8.88971;stroke-dasharray:none;stroke-linejoin:bevel;stroke-linecap:round;stroke-dashoffset:0;"
     d="M442 40 C441.8 41.18 443.3 41.02 444 41 L446 41 L447 42 L450 43 L451 44 L456 49 L457 50 L457 51 L458 52 L458 53 L459 54 L459 56 L459 58 L459 358 L459 360 L459 361 L458 362 L455 368 L454 369 L453 370 L452 371 L450 372 L449 373 L448 373 L447 374 L446 374 C445.3 374 443.8 373.8 444 375 L441 375 L153 374 L154 373 L157 369 L158 368 L159 367 L161 364 L162 363 L163 362 L165 359 L166 358 L167 357 L170 353 L171 352 L172 351 L174 348 L175 347 L176 346 L179 342 L180 341 L181 340 L183 337 L184 336 L185 335 L188 331 L189 330 L190 329 L192 326 L193 325 L194 324 L197 320 L198 319 L199 318 L201 315 L202 314 L203 313 L206 309 L207 308 L208 307 L210 304 L211 303 L212 302 L215 298 L216 297 L217 296 L219 293 L220 292 L221 291 C221.3 289.7 222.7 288.7 224 289 L225 290 L227 290 L228 291 L229 291 L230 292 L231 292 L232 293 L234 293 L235 294 L236 294 L237 295 L238 295 L239 296 L241 296 L242 297 L243 297 L244 298 L245 298 L246 299 L248 299 L249 300 L250 300 L251 301 L252 301 L253 302 L255 302 L256 303 L257 303 L258 304 L259 304 L260 305 L264 306 L265 307 L266 307 L267 308 L271 309 L272 310 L273 310 L274 311 L278 312 L279 313 L280 313 L281 314 L285 315 L286 316 L287 316 L288 317 L292 318 L293 319 L294 319 L295 320 L299 321 L300 322 L301 322 L302 323 L306 324 L307 325 L308 325 L309 326 L313 327 L314 328 L315 328 L316 329 L317 329 L318 330 L320 330 L321 331 L322 331 L323 332 L324 332 L325 333 L327 333 L328 334 L329 334 L330 335 L331 335 L332 336 L334 336 L335 337 L336 337 L337 338 L338 338 L339 339 L341 339 L342 340 L343 340 L344 341 L345 341 L346 342 L348 342 L349 343 L350 343 L351 344 L352 344 L353 345 L355 345 L356 346 L357 346 L358 347 L359 347 L360 348 C361.6 348.3 363.7 347.9 364 346 L365 345 L366 343 L367 342 L367 341 L368 340 L373 329 L374 328 L374 327 L375 326 L375 325 L376 324 L376 323 L377 322 L377 320 L378 319 L378 318 L379 317 L380 313 L381 312 L381 311 L382 310 L382 308 L383 307 L384 303 L385 302 L380 298 L379 297 L378 297 L377 296 L373 294 L372 293 L369 291 L368 290 L366 289 L365 288 L364 287 L361 285 L360 284 L359 283 L345 269 L344 268 L343 267 L342 266 L340 263 L339 262 L337 259 L336 258 L331 250 L330 249 L329 247 L328 246 L328 245 L327 244 L324 238 L324 237 L327 240 L328 241 L330 244 L331 245 L332 246 L333 247 L337 252 L338 253 L339 254 L340 255 L341 256 L342 257 L343 258 L344 259 L345 260 L346 261 L347 262 L348 263 L349 264 L355 269 L356 270 L357 271 L358 272 L362 275 L363 276 L366 278 L367 279 L368 280 L370 281 L371 282 L372 283 L374 284 L375 285 L377 286 L378 287 L380 288 L381 289 L383 290 L384 291 L386 292 C385.8 293.3 388.2 293.3 388 292 L388 291 C389.2 291.2 389 289.7 389 289 L389 287 C390.2 287.2 390 285.7 390 285 L390 282 C391.2 282.2 391 280.7 391 280 L391 277 C392.6 276.9 391.8 274.9 392 274 L392 272 L393 267 L393 242 L392 237 L392 233 L391 229 L391 227 L391 225 C391 224.3 391.2 222.8 390 223 L390 220 C390 219.3 390.2 217.8 389 218 L389 215 C389 214.3 389.2 212.8 388 213 L388 211 C388 210.3 388.2 208.8 387 209 L387 207 C387 206.3 387.2 204.8 386 205 L386 204 C386 203.3 386.2 201.8 385 202 L385 200 C385 199.3 385.2 197.8 384 198 L384 197 C384 196.3 384.2 194.8 383 195 L383 193 L382 192 L382 190 L381 189 L381 187 L380 186 L380 185 L379 184 L379 182 L378 181 L377 180 L376 179 L368 177 L367 176 L365 176 C365.2 174.8 363.7 175 363 175 L362 175 C362.2 173.8 360.7 174 360 174 L358 174 L357 173 L356 173 C356.2 171.8 354.7 172 354 172 L349 171 L348 170 L346 170 C346.2 168.8 344.7 169 344 169 L343 169 L344 168 L347 168 C346.8 169.2 348.3 169 349 169 L351 169 C350.8 170.2 352.3 170 353 170 L357 170 C356.8 171.2 358.3 171 359 171 L360 171 C360.1 172.6 362.1 171.8 363 172 L367 172 C366.8 173.2 368.3 173 369 173 L373 173 C373.1 174.6 375.1 173.8 376 174 L378 174 L382 175 C385.8 174.6 391.3 176.6 393 172 L394 171 L394 169 L395 165 L395 159 L394 154 L394 151 C393.8 150.1 394.6 148.1 393 148 L393 145 L393 143 C393 142.3 393.2 140.8 392 141 L391 134 C391 133.3 391.2 131.8 390 132 L390 131 C390 130.3 390.2 128.8 389 129 L389 127 C389 126.3 389.2 124.8 388 125 L388 124 C388 123.3 388.2 121.8 387 122 L387 120 C387 119.3 387.2 117.8 386 118 L386 117 C386 116.3 386.2 114.8 385 115 L385 114 C385 113.3 385.2 111.8 384 112 L383 108 L382 107 L382 106 L381 105 L381 104 L380 103 L379 100 L378 99 L378 98 L377 97 L375 95 L374 94 L372 93 L371 92 L367 91 L366 90 L364 90 L363 89 L361 89 L360 88 L358 88 C358.2 86.82 356.7 86.98 356 87 L355 87 C355.2 85.82 353.7 85.98 353 86 L351 86 C351.2 84.82 349.7 84.98 349 85 L346 85 C346.2 83.82 344.7 83.98 344 84 L341 84 C341.2 82.82 339.7 82.98 339 83 L336 83 C336.2 81.82 334.7 81.98 334 82 L331 82 C331.2 80.82 329.7 80.98 329 81 L326 81 C325.9 79.41 323.9 80.19 323 80 L319 80 C318.9 78.41 316.9 79.19 316 79 L312 79 C311.9 77.41 309.9 78.19 309 78 L302 78 L297 77 L294 77 C293.9 75.41 291.9 76.19 291 76 L285 76 L281 76 L275 75 L264 76 L254 76 L250 77 L248 77 L246 77 C245.3 76.98 243.8 76.82 244 78 L242 78 C241.3 77.98 239.8 77.82 240 79 L238 79 C237.3 78.98 235.8 78.82 236 80 L235 80 C234.3 79.98 232.8 79.82 233 81 L232 81 L231 82 L229 82 L228 83 L227 83 L226 84 C224 84.21 226.2 85.56 227 85 C226.8 86.18 228.3 86.02 229 86 L234 86 C233.8 87.18 235.3 87.02 236 87 L238 87 C237.8 88.18 239.3 88.02 240 88 L243 88 C242.8 89.18 244.3 89.02 245 89 L248 89 C248.2 90.18 246.7 90.02 246 90 L242 90 L238 89 L232 89 C231.9 87.41 229.9 88.19 229 88 L225 88 L221 87 L217 87 L213 86 L211 86 L207 85 L203 85 L199 84 L195 84 L191 83 C187.6 82.2 184.4 83.9 183 87 L182 88 L181 89 L180 90 L178 93 L177 94 L176 96 L175 97 L174 99 L173 100 L173 101 L172 102 L172 103 L171 104 L171 105 L170 106 L170 108 C168.8 107.8 169 109.3 169 110 L169 112 C167.3 113.7 167.3 119.3 169 121 L169 123 L170 124 L170 126 L171 127 L171 128 L172 129 L173 131 L174 132 L176 135 L177 136 L178 137 L179 138 L180 139 L181 140 L182 141 L183 142 L184 143 L185 144 L188 146 L189 147 L190 148 L192 149 L193 150 L195 151 L196 152 L208 158 L209 159 L210 159 L211 160 L212 160 L213 161 L214 161 L215 162 L216 162 L217 163 L218 163 L217 164 L216 164 L215 164 L214 163 L210 162 L209 161 L208 161 L207 160 L205 160 L204 159 L203 159 L202 158 L200 158 L199 157 L198 157 L197 156 L196 156 L195 155 L193 155 L192 154 L188 154 C187.3 154 185.8 153.8 186 155 L185 155 C184.3 155 182.8 154.8 183 156 L181 156 C180.3 156 178.8 155.8 179 157 L177 157 C176.3 157 174.8 156.8 175 158 L174 158 C173.3 158 171.8 157.8 172 159 L170 159 C169.3 159 167.8 158.8 168 160 L167 160 C166.3 160 164.8 159.8 165 161 L163 161 C162.3 161 160.8 160.8 161 162 L160 162 C159.3 162 157.8 161.8 158 163 L156 163 C155.3 163 153.8 162.8 154 164 L152 164 C151.3 164 149.8 163.8 150 165 L149 165 C148.3 165 146.8 164.8 147 166 L145 166 C144.3 166 142.8 165.8 143 167 L141 167 C140.3 167 138.8 166.8 139 168 L138 168 C137.3 168 135.8 167.8 136 169 L134 169 C133.3 169 131.8 168.8 132 170 L131 170 C130.3 170 128.8 169.8 129 171 L126 171 L125 59 L125 56 L125 55 C126.2 55.15 126 53.66 126 53 L126 52 L127 51 L128 49 L129 48 L133 44 L134 43 L135 43 L136 42 L137 42 L138 41 L140 41 C140.7 41.02 142.2 41.18 142 40 L442 40 z"
     id="path1267"
     transform="matrix(5.196420e-2,-5.283455e-2,8.298751e-2,4.366134e-2,-7.974946,23.41618)" />
  <path
     adobe-blending-mode="multiply"
     opacity="0.2"
     stroke="none"
     d="M43.458,22.516l-4.069,3.987l-4.427,1.877l7.21-7.74     L43.458,22.516z"
     id="path217"
     style="font-size:12;opacity:0.2;" />
</svg>
