/* XPM */
static char * volume_xpm[] = {
"24 24 206 2",
"  	c None",
". 	c #000000",
"+ 	c #8C0000",
"@ 	c #9E0000",
"# 	c #AE0000",
"$ 	c #450000",
"% 	c #8F0000",
"& 	c #910000",
"* 	c #840000",
"= 	c #470000",
"- 	c #540000",
"; 	c #6E0000",
"> 	c #6F0000",
", 	c #110000",
"' 	c #A40000",
") 	c #FD0000",
"! 	c #FA0000",
"~ 	c #9D0000",
"{ 	c #630000",
"] 	c #920000",
"^ 	c #7A0000",
"/ 	c #1F0000",
"( 	c #4E1C06",
"_ 	c #90480F",
": 	c #8E5E14",
"< 	c #7A6515",
"[ 	c #575812",
"} 	c #C8CA2A",
"| 	c #CCCE2B",
"1 	c #666715",
"2 	c #646515",
"3 	c #F0F333",
"4 	c #DEE02F",
"5 	c #C0C328",
"6 	c #121304",
"7 	c #222207",
"8 	c #7D7E1A",
"9 	c #7A7C19",
"0 	c #585912",
"a 	c #34340B",
"b 	c #767718",
"c 	c #4A4B0F",
"d 	c #111103",
"e 	c #2E2F0A",
"f 	c #47480F",
"g 	c #595A13",
"h 	c #1A1A05",
"i 	c #7C7E1A",
"j 	c #92941F",
"k 	c #A7AA24",
"l 	c #1C1C06",
"m 	c #D0D32C",
"n 	c #D4D72C",
"o 	c #D0D22C",
"p 	c #222307",
"q 	c #C0C228",
"r 	c #A4A522",
"s 	c #81821B",
"t 	c #2D2D09",
"u 	c #5F6014",
"v 	c #525311",
"w 	c #969820",
"x 	c #F6FA34",
"y 	c #F2F533",
"z 	c #E9EC32",
"A 	c #ADB024",
"B 	c #90921E",
"C 	c #757719",
"D 	c #242408",
"E 	c #6D6E16",
"F 	c #727318",
"G 	c #292908",
"H 	c #666815",
"I 	c #86881C",
"J 	c #9A9B20",
"K 	c #1E1F06",
"L 	c #A2A422",
"M 	c #9C9E21",
"N 	c #535411",
"O 	c #7F811B",
"P 	c #787A19",
"Q 	c #7E801A",
"R 	c #1A1B05",
"S 	c #A5A722",
"T 	c #C4C529",
"U 	c #CED02B",
"V 	c #636414",
"W 	c #85861C",
"X 	c #BBBD27",
"Y 	c #9FA121",
"Z 	c #45460E",
"` 	c #48480F",
" .	c #596312",
"..	c #4A660E",
"+.	c #122303",
"@.	c #215903",
"#.	c #125200",
"$.	c #092900",
"%.	c #A4A622",
"&.	c #E1E430",
"*.	c #C8CB2A",
"=.	c #A9AB24",
"-.	c #2C2D09",
";.	c #5C5E13",
">.	c #617413",
",.	c #4A720D",
"'.	c #224804",
").	c #0C3100",
"!.	c #1A6F00",
"~.	c #1F8600",
"{.	c #186A00",
"].	c #145700",
"^.	c #27A800",
"/.	c #26A300",
"(.	c #124E00",
"_.	c #145900",
":.	c #155C00",
"<.	c #092600",
"[.	c #123002",
"}.	c #1D7600",
"|.	c #208C00",
"1.	c #26A500",
"2.	c #145800",
"3.	c #1E8200",
"4.	c #2FCA00",
"5.	c #2EC500",
"6.	c #239A00",
"7.	c #0E3B00",
"8.	c #1D7F00",
"9.	c #166100",
"0.	c #082200",
"a.	c #165F00",
"b.	c #135400",
"c.	c #104800",
"d.	c #0E4000",
"e.	c #208A00",
"f.	c #124F00",
"g.	c #082600",
"h.	c #2DC400",
"i.	c #25A200",
"j.	c #1E8100",
"k.	c #0D3B00",
"l.	c #0C3600",
"m.	c #196B00",
"n.	c #186800",
"o.	c #051600",
"p.	c #249B00",
"q.	c #28AC00",
"r.	c #061900",
"s.	c #219000",
"t.	c #1A7300",
"u.	c #125100",
"v.	c #104700",
"w.	c #1E8000",
"x.	c #2BBC00",
"y.	c #239700",
"z.	c #104600",
"A.	c #2CC000",
"B.	c #28AF00",
"C.	c #218E00",
"D.	c #030C00",
"E.	c #155E00",
"F.	c #155B00",
"G.	c #1C7A00",
"H.	c #051700",
"I.	c #1E8400",
"J.	c #186C00",
"K.	c #208D00",
"L.	c #1F8500",
"M.	c #196A00",
"N.	c #165D00",
"O.	c #041200",
"P.	c #196E00",
"Q.	c #1F8800",
"R.	c #0B3000",
"S.	c #229300",
"T.	c #249A00",
"U.	c #0E3C00",
"V.	c #114B00",
"W.	c #124C00",
"X.	c #061A00",
"Y.	c #176600",
"Z.	c #28AD00",
"`.	c #2CC200",
" +	c #2CBF00",
".+	c #28AE00",
"++	c #092800",
"@+	c #0E3D00",
"#+	c #135600",
"$+	c #1F8A00",
"%+	c #104400",
"&+	c #1B7600",
"*+	c #1B7300",
"=+	c #166200",
"-+	c #166000",
";+	c #041300",
">+	c #125000",
",+	c #239900",
"'+	c #239500",
")+	c #1A7000",
"!+	c #2BBA00",
"~+	c #2AB500",
"{+	c #1D8000",
"]+	c #27A900",
"^+	c #26A400",
"/+	c #2BBB00",
"                                                ",
"                                                ",
"                                                ",
"  . . . . . . . . . . . . . . . . . .           ",
"  . . . . . . . . . . . . . . . . . . .         ",
"  . . . . . . . . . . . . . . . . . . .         ",
"  . . . . . + @ # $ . . . . . . . . . .         ",
"  . . . . . % & * = . . . . - ; > , . .         ",
"  . . . . . ' ) ! ~ . . . . { ] ^ / . . .       ",
"    . . . . ( _ : < . . . . [ } | 1 . . .       ",
"    . . . . 2 3 4 5 . . . 6 7 8 9 0 a b c       ",
"    d e f g h i j k l m n o p q r s t u v       ",
"    w x y z 6 A B C D E b F G H I J K L M       ",
"    N O P Q R S T U V W X Y Z `  ...+.@.#.$.    ",
"    %.&.*.=.-.;.>.,.'.).!.~.{.].^./.(._.:.<.    ",
"    [.}.|.1.2.3.4.5.6.7.8.9._.0.a.b.c.d.e.f.    ",
"    g.h.i.j.k.l.m.n.{.o.p.q.^.r.s.t.(.0.u.v.    ",
"      w.i.x.y.z.A.B.C.D.:.E.F.r.9.G.|.H.I.J.    ",
"      K.L.M.N.O.9.P.Q.R.S./.T.U.V.W.(.X.d.2.R.  ",
"      Y.Z.`. +D..+|.{.++@+#+b.@+V.$+I.%+F.&+    ",
"      b.*+=+-+;+_.w.T.=+>+,+'+)+                ",
"      Q..+!+~+U.{+]+^+                          ",
"        /+                                      ",
"                                                "};
